<mxfile host="65bd71144e">
    <diagram id="9JeKYPiloH4I5pxhCVWt" name="PÃ¡gina-1">
        <mxGraphModel dx="1404" dy="884" grid="1" gridSize="10" guides="1" tooltips="1" connect="1" arrows="1" fold="1" page="1" pageScale="1" pageWidth="827" pageHeight="1169" math="0" shadow="0">
            <root>
                <mxCell id="0"/>
                <mxCell id="1" parent="0"/>
                <mxCell id="2" value="Funcionario" style="rounded=1;whiteSpace=wrap;html=1;" vertex="1" parent="1">
                    <mxGeometry x="290" y="180" width="120" height="60" as="geometry"/>
                </mxCell>
                <mxCell id="3" value="nome" style="ellipse;whiteSpace=wrap;html=1;" vertex="1" parent="1">
                    <mxGeometry x="190" y="70" width="80" height="50" as="geometry"/>
                </mxCell>
                <mxCell id="4" value="cpf" style="ellipse;whiteSpace=wrap;html=1;" vertex="1" parent="1">
                    <mxGeometry x="300" y="70" width="80" height="50" as="geometry"/>
                </mxCell>
                <mxCell id="5" value="" style="endArrow=none;html=1;exitX=0;exitY=0;exitDx=0;exitDy=0;" edge="1" parent="1" source="2" target="3">
                    <mxGeometry width="50" height="50" relative="1" as="geometry">
                        <mxPoint x="240" y="210" as="sourcePoint"/>
                        <mxPoint x="290" y="160" as="targetPoint"/>
                    </mxGeometry>
                </mxCell>
                <mxCell id="6" value="" style="endArrow=none;html=1;exitX=0.393;exitY=-0.053;exitDx=0;exitDy=0;entryX=0.605;entryY=0.968;entryDx=0;entryDy=0;entryPerimeter=0;exitPerimeter=0;" edge="1" parent="1" source="2" target="4">
                    <mxGeometry width="50" height="50" relative="1" as="geometry">
                        <mxPoint x="300" y="190" as="sourcePoint"/>
                        <mxPoint x="256" y="128" as="targetPoint"/>
                    </mxGeometry>
                </mxCell>
                <mxCell id="7" value="Salario_Fixo" style="ellipse;whiteSpace=wrap;html=1;" vertex="1" parent="1">
                    <mxGeometry x="190" y="585" width="90" height="60" as="geometry"/>
                </mxCell>
                <mxCell id="8" value="Horas_Trabalhadas" style="ellipse;whiteSpace=wrap;html=1;" vertex="1" parent="1">
                    <mxGeometry x="390" y="580" width="100" height="60" as="geometry"/>
                </mxCell>
                <mxCell id="9" value="Valor_Hora" style="ellipse;whiteSpace=wrap;html=1;" vertex="1" parent="1">
                    <mxGeometry x="500" y="580" width="100" height="60" as="geometry"/>
                </mxCell>
                <mxCell id="10" value="d" style="ellipse;whiteSpace=wrap;html=1;aspect=fixed;" vertex="1" parent="1">
                    <mxGeometry x="310" y="300" width="80" height="80" as="geometry"/>
                </mxCell>
                <mxCell id="12" value="" style="endArrow=none;html=1;exitX=0.5;exitY=1;exitDx=0;exitDy=0;" edge="1" parent="1" source="2" target="10">
                    <mxGeometry width="50" height="50" relative="1" as="geometry">
                        <mxPoint x="300" y="190" as="sourcePoint"/>
                        <mxPoint x="256" y="128" as="targetPoint"/>
                    </mxGeometry>
                </mxCell>
                <mxCell id="13" value="" style="endArrow=none;html=1;entryX=0.5;entryY=0;entryDx=0;entryDy=0;" edge="1" parent="1" source="10" target="15">
                    <mxGeometry width="50" height="50" relative="1" as="geometry">
                        <mxPoint x="360" y="250" as="sourcePoint"/>
                        <mxPoint x="360" y="310" as="targetPoint"/>
                    </mxGeometry>
                </mxCell>
                <mxCell id="14" value="Funcionario_Mensalista" style="rounded=1;whiteSpace=wrap;html=1;" vertex="1" parent="1">
                    <mxGeometry x="220" y="460" width="120" height="60" as="geometry"/>
                </mxCell>
                <mxCell id="15" value="Funcionario_Horista" style="rounded=1;whiteSpace=wrap;html=1;" vertex="1" parent="1">
                    <mxGeometry x="400" y="460" width="120" height="60" as="geometry"/>
                </mxCell>
                <mxCell id="16" value="" style="endArrow=none;html=1;" edge="1" parent="1" source="10" target="14">
                    <mxGeometry width="50" height="50" relative="1" as="geometry">
                        <mxPoint x="387" y="379" as="sourcePoint"/>
                        <mxPoint x="470" y="470" as="targetPoint"/>
                    </mxGeometry>
                </mxCell>
                <mxCell id="17" value="" style="endArrow=none;html=1;entryX=0.5;entryY=0;entryDx=0;entryDy=0;exitX=0.5;exitY=1;exitDx=0;exitDy=0;" edge="1" parent="1" source="14" target="7">
                    <mxGeometry width="50" height="50" relative="1" as="geometry">
                        <mxPoint x="343" y="386" as="sourcePoint"/>
                        <mxPoint x="304" y="470" as="targetPoint"/>
                    </mxGeometry>
                </mxCell>
                <mxCell id="18" value="" style="endArrow=none;html=1;entryX=0.388;entryY=0;entryDx=0;entryDy=0;entryPerimeter=0;exitX=0.5;exitY=1;exitDx=0;exitDy=0;" edge="1" parent="1" source="15" target="9">
                    <mxGeometry width="50" height="50" relative="1" as="geometry">
                        <mxPoint x="387" y="379" as="sourcePoint"/>
                        <mxPoint x="470" y="470" as="targetPoint"/>
                    </mxGeometry>
                </mxCell>
                <mxCell id="19" value="" style="endArrow=none;html=1;exitX=0.5;exitY=1;exitDx=0;exitDy=0;" edge="1" parent="1" source="15" target="8">
                    <mxGeometry width="50" height="50" relative="1" as="geometry">
                        <mxPoint x="470" y="530" as="sourcePoint"/>
                        <mxPoint x="549" y="590" as="targetPoint"/>
                    </mxGeometry>
                </mxCell>
                <mxCell id="20" value="Funcionario" style="shape=table;startSize=30;container=1;collapsible=0;childLayout=tableLayout;strokeColor=default;fontSize=16;" vertex="1" parent="1">
                    <mxGeometry x="680" y="150" width="665" height="330" as="geometry"/>
                </mxCell>
                <mxCell id="21" value="" style="shape=tableRow;horizontal=0;startSize=0;swimlaneHead=0;swimlaneBody=0;strokeColor=inherit;top=0;left=0;bottom=0;right=0;collapsible=0;dropTarget=0;fillColor=none;points=[[0,0.5],[1,0.5]];portConstraint=eastwest;fontSize=16;" vertex="1" parent="20">
                    <mxGeometry y="30" width="665" height="101" as="geometry"/>
                </mxCell>
                <mxCell id="22" value="id" style="shape=partialRectangle;html=1;whiteSpace=wrap;connectable=0;strokeColor=inherit;overflow=hidden;fillColor=none;top=0;left=0;bottom=0;right=0;pointerEvents=1;fontSize=16;" vertex="1" parent="21">
                    <mxGeometry width="95" height="101" as="geometry">
                        <mxRectangle width="95" height="101" as="alternateBounds"/>
                    </mxGeometry>
                </mxCell>
                <mxCell id="36" value="nome" style="shape=partialRectangle;html=1;whiteSpace=wrap;connectable=0;strokeColor=inherit;overflow=hidden;fillColor=none;top=0;left=0;bottom=0;right=0;pointerEvents=1;fontSize=16;" vertex="1" parent="21">
                    <mxGeometry x="95" width="95" height="101" as="geometry">
                        <mxRectangle width="95" height="101" as="alternateBounds"/>
                    </mxGeometry>
                </mxCell>
                <mxCell id="39" value="cpf" style="shape=partialRectangle;html=1;whiteSpace=wrap;connectable=0;strokeColor=inherit;overflow=hidden;fillColor=none;top=0;left=0;bottom=0;right=0;pointerEvents=1;fontSize=16;" vertex="1" parent="21">
                    <mxGeometry x="190" width="95" height="101" as="geometry">
                        <mxRectangle width="95" height="101" as="alternateBounds"/>
                    </mxGeometry>
                </mxCell>
                <mxCell id="23" value="salario_fixo" style="shape=partialRectangle;html=1;whiteSpace=wrap;connectable=0;strokeColor=inherit;overflow=hidden;fillColor=none;top=0;left=0;bottom=0;right=0;pointerEvents=1;fontSize=16;" vertex="1" parent="21">
                    <mxGeometry x="285" width="105" height="101" as="geometry">
                        <mxRectangle width="105" height="101" as="alternateBounds"/>
                    </mxGeometry>
                </mxCell>
                <mxCell id="24" value="horas_trabalhadas" style="shape=partialRectangle;html=1;whiteSpace=wrap;connectable=0;strokeColor=inherit;overflow=hidden;fillColor=none;top=0;left=0;bottom=0;right=0;pointerEvents=1;fontSize=16;" vertex="1" parent="21">
                    <mxGeometry x="390" width="85" height="101" as="geometry">
                        <mxRectangle width="85" height="101" as="alternateBounds"/>
                    </mxGeometry>
                </mxCell>
                <mxCell id="33" value="valor_hora" style="shape=partialRectangle;html=1;whiteSpace=wrap;connectable=0;strokeColor=inherit;overflow=hidden;fillColor=none;top=0;left=0;bottom=0;right=0;pointerEvents=1;fontSize=16;" vertex="1" parent="21">
                    <mxGeometry x="475" width="95" height="101" as="geometry">
                        <mxRectangle width="95" height="101" as="alternateBounds"/>
                    </mxGeometry>
                </mxCell>
                <mxCell id="42" value="tipo_pagamento" style="shape=partialRectangle;html=1;whiteSpace=wrap;connectable=0;strokeColor=inherit;overflow=hidden;fillColor=none;top=0;left=0;bottom=0;right=0;pointerEvents=1;fontSize=16;" vertex="1" parent="21">
                    <mxGeometry x="570" width="95" height="101" as="geometry">
                        <mxRectangle width="95" height="101" as="alternateBounds"/>
                    </mxGeometry>
                </mxCell>
                <mxCell id="25" value="" style="shape=tableRow;horizontal=0;startSize=0;swimlaneHead=0;swimlaneBody=0;strokeColor=inherit;top=0;left=0;bottom=0;right=0;collapsible=0;dropTarget=0;fillColor=none;points=[[0,0.5],[1,0.5]];portConstraint=eastwest;fontSize=16;" vertex="1" parent="20">
                    <mxGeometry y="131" width="665" height="98" as="geometry"/>
                </mxCell>
                <mxCell id="26" value="01" style="shape=partialRectangle;html=1;whiteSpace=wrap;connectable=0;strokeColor=inherit;overflow=hidden;fillColor=none;top=0;left=0;bottom=0;right=0;pointerEvents=1;fontSize=16;" vertex="1" parent="25">
                    <mxGeometry width="95" height="98" as="geometry">
                        <mxRectangle width="95" height="98" as="alternateBounds"/>
                    </mxGeometry>
                </mxCell>
                <mxCell id="37" value="Lula" style="shape=partialRectangle;html=1;whiteSpace=wrap;connectable=0;strokeColor=inherit;overflow=hidden;fillColor=none;top=0;left=0;bottom=0;right=0;pointerEvents=1;fontSize=16;" vertex="1" parent="25">
                    <mxGeometry x="95" width="95" height="98" as="geometry">
                        <mxRectangle width="95" height="98" as="alternateBounds"/>
                    </mxGeometry>
                </mxCell>
                <mxCell id="40" value="12934003" style="shape=partialRectangle;html=1;whiteSpace=wrap;connectable=0;strokeColor=inherit;overflow=hidden;fillColor=none;top=0;left=0;bottom=0;right=0;pointerEvents=1;fontSize=16;" vertex="1" parent="25">
                    <mxGeometry x="190" width="95" height="98" as="geometry">
                        <mxRectangle width="95" height="98" as="alternateBounds"/>
                    </mxGeometry>
                </mxCell>
                <mxCell id="27" value="10000" style="shape=partialRectangle;html=1;whiteSpace=wrap;connectable=0;strokeColor=inherit;overflow=hidden;fillColor=none;top=0;left=0;bottom=0;right=0;pointerEvents=1;fontSize=16;" vertex="1" parent="25">
                    <mxGeometry x="285" width="105" height="98" as="geometry">
                        <mxRectangle width="105" height="98" as="alternateBounds"/>
                    </mxGeometry>
                </mxCell>
                <mxCell id="28" value="null" style="shape=partialRectangle;html=1;whiteSpace=wrap;connectable=0;strokeColor=inherit;overflow=hidden;fillColor=none;top=0;left=0;bottom=0;right=0;pointerEvents=1;fontSize=16;" vertex="1" parent="25">
                    <mxGeometry x="390" width="85" height="98" as="geometry">
                        <mxRectangle width="85" height="98" as="alternateBounds"/>
                    </mxGeometry>
                </mxCell>
                <mxCell id="34" value="null" style="shape=partialRectangle;html=1;whiteSpace=wrap;connectable=0;strokeColor=inherit;overflow=hidden;fillColor=none;top=0;left=0;bottom=0;right=0;pointerEvents=1;fontSize=16;" vertex="1" parent="25">
                    <mxGeometry x="475" width="95" height="98" as="geometry">
                        <mxRectangle width="95" height="98" as="alternateBounds"/>
                    </mxGeometry>
                </mxCell>
                <mxCell id="43" value="Mensalista" style="shape=partialRectangle;html=1;whiteSpace=wrap;connectable=0;strokeColor=inherit;overflow=hidden;fillColor=none;top=0;left=0;bottom=0;right=0;pointerEvents=1;fontSize=16;" vertex="1" parent="25">
                    <mxGeometry x="570" width="95" height="98" as="geometry">
                        <mxRectangle width="95" height="98" as="alternateBounds"/>
                    </mxGeometry>
                </mxCell>
                <mxCell id="29" value="" style="shape=tableRow;horizontal=0;startSize=0;swimlaneHead=0;swimlaneBody=0;strokeColor=inherit;top=0;left=0;bottom=0;right=0;collapsible=0;dropTarget=0;fillColor=none;points=[[0,0.5],[1,0.5]];portConstraint=eastwest;fontSize=16;" vertex="1" parent="20">
                    <mxGeometry y="229" width="665" height="101" as="geometry"/>
                </mxCell>
                <mxCell id="30" value="02" style="shape=partialRectangle;html=1;whiteSpace=wrap;connectable=0;strokeColor=inherit;overflow=hidden;fillColor=none;top=0;left=0;bottom=0;right=0;pointerEvents=1;fontSize=16;" vertex="1" parent="29">
                    <mxGeometry width="95" height="101" as="geometry">
                        <mxRectangle width="95" height="101" as="alternateBounds"/>
                    </mxGeometry>
                </mxCell>
                <mxCell id="38" value="Bolsonaro" style="shape=partialRectangle;html=1;whiteSpace=wrap;connectable=0;strokeColor=inherit;overflow=hidden;fillColor=none;top=0;left=0;bottom=0;right=0;pointerEvents=1;fontSize=16;" vertex="1" parent="29">
                    <mxGeometry x="95" width="95" height="101" as="geometry">
                        <mxRectangle width="95" height="101" as="alternateBounds"/>
                    </mxGeometry>
                </mxCell>
                <mxCell id="41" value="2335495" style="shape=partialRectangle;html=1;whiteSpace=wrap;connectable=0;strokeColor=inherit;overflow=hidden;fillColor=none;top=0;left=0;bottom=0;right=0;pointerEvents=1;fontSize=16;" vertex="1" parent="29">
                    <mxGeometry x="190" width="95" height="101" as="geometry">
                        <mxRectangle width="95" height="101" as="alternateBounds"/>
                    </mxGeometry>
                </mxCell>
                <mxCell id="31" value="null" style="shape=partialRectangle;html=1;whiteSpace=wrap;connectable=0;strokeColor=inherit;overflow=hidden;fillColor=none;top=0;left=0;bottom=0;right=0;pointerEvents=1;fontSize=16;" vertex="1" parent="29">
                    <mxGeometry x="285" width="105" height="101" as="geometry">
                        <mxRectangle width="105" height="101" as="alternateBounds"/>
                    </mxGeometry>
                </mxCell>
                <mxCell id="32" value="40" style="shape=partialRectangle;html=1;whiteSpace=wrap;connectable=0;strokeColor=inherit;overflow=hidden;fillColor=none;top=0;left=0;bottom=0;right=0;pointerEvents=1;fontSize=16;" vertex="1" parent="29">
                    <mxGeometry x="390" width="85" height="101" as="geometry">
                        <mxRectangle width="85" height="101" as="alternateBounds"/>
                    </mxGeometry>
                </mxCell>
                <mxCell id="35" value="100" style="shape=partialRectangle;html=1;whiteSpace=wrap;connectable=0;strokeColor=inherit;overflow=hidden;fillColor=none;top=0;left=0;bottom=0;right=0;pointerEvents=1;fontSize=16;" vertex="1" parent="29">
                    <mxGeometry x="475" width="95" height="101" as="geometry">
                        <mxRectangle width="95" height="101" as="alternateBounds"/>
                    </mxGeometry>
                </mxCell>
                <mxCell id="44" value="Horista" style="shape=partialRectangle;html=1;whiteSpace=wrap;connectable=0;strokeColor=inherit;overflow=hidden;fillColor=none;top=0;left=0;bottom=0;right=0;pointerEvents=1;fontSize=16;" vertex="1" parent="29">
                    <mxGeometry x="570" width="95" height="101" as="geometry">
                        <mxRectangle width="95" height="101" as="alternateBounds"/>
                    </mxGeometry>
                </mxCell>
                <mxCell id="45" value="Funcionario_Mensalista" style="shape=table;startSize=30;container=1;collapsible=0;childLayout=tableLayout;strokeColor=default;fontSize=16;" vertex="1" parent="1">
                    <mxGeometry x="450" y="680" width="485" height="229" as="geometry"/>
                </mxCell>
                <mxCell id="46" value="" style="shape=tableRow;horizontal=0;startSize=0;swimlaneHead=0;swimlaneBody=0;strokeColor=inherit;top=0;left=0;bottom=0;right=0;collapsible=0;dropTarget=0;fillColor=none;points=[[0,0.5],[1,0.5]];portConstraint=eastwest;fontSize=16;" vertex="1" parent="45">
                    <mxGeometry y="30" width="485" height="101" as="geometry"/>
                </mxCell>
                <mxCell id="47" value="id" style="shape=partialRectangle;html=1;whiteSpace=wrap;connectable=0;strokeColor=inherit;overflow=hidden;fillColor=none;top=0;left=0;bottom=0;right=0;pointerEvents=1;fontSize=16;" vertex="1" parent="46">
                    <mxGeometry width="95" height="101" as="geometry">
                        <mxRectangle width="95" height="101" as="alternateBounds"/>
                    </mxGeometry>
                </mxCell>
                <mxCell id="95" value="Id_funcionario" style="shape=partialRectangle;html=1;whiteSpace=wrap;connectable=0;strokeColor=inherit;overflow=hidden;fillColor=none;top=0;left=0;bottom=0;right=0;pointerEvents=1;fontSize=16;" vertex="1" parent="46">
                    <mxGeometry x="95" width="95" height="101" as="geometry">
                        <mxRectangle width="95" height="101" as="alternateBounds"/>
                    </mxGeometry>
                </mxCell>
                <mxCell id="48" value="nome" style="shape=partialRectangle;html=1;whiteSpace=wrap;connectable=0;strokeColor=inherit;overflow=hidden;fillColor=none;top=0;left=0;bottom=0;right=0;pointerEvents=1;fontSize=16;" vertex="1" parent="46">
                    <mxGeometry x="190" width="95" height="101" as="geometry">
                        <mxRectangle width="95" height="101" as="alternateBounds"/>
                    </mxGeometry>
                </mxCell>
                <mxCell id="49" value="cpf" style="shape=partialRectangle;html=1;whiteSpace=wrap;connectable=0;strokeColor=inherit;overflow=hidden;fillColor=none;top=0;left=0;bottom=0;right=0;pointerEvents=1;fontSize=16;" vertex="1" parent="46">
                    <mxGeometry x="285" width="95" height="101" as="geometry">
                        <mxRectangle width="95" height="101" as="alternateBounds"/>
                    </mxGeometry>
                </mxCell>
                <mxCell id="50" value="salario_fixo" style="shape=partialRectangle;html=1;whiteSpace=wrap;connectable=0;strokeColor=inherit;overflow=hidden;fillColor=none;top=0;left=0;bottom=0;right=0;pointerEvents=1;fontSize=16;" vertex="1" parent="46">
                    <mxGeometry x="380" width="105" height="101" as="geometry">
                        <mxRectangle width="105" height="101" as="alternateBounds"/>
                    </mxGeometry>
                </mxCell>
                <mxCell id="54" value="" style="shape=tableRow;horizontal=0;startSize=0;swimlaneHead=0;swimlaneBody=0;strokeColor=inherit;top=0;left=0;bottom=0;right=0;collapsible=0;dropTarget=0;fillColor=none;points=[[0,0.5],[1,0.5]];portConstraint=eastwest;fontSize=16;" vertex="1" parent="45">
                    <mxGeometry y="131" width="485" height="98" as="geometry"/>
                </mxCell>
                <mxCell id="55" value="01" style="shape=partialRectangle;html=1;whiteSpace=wrap;connectable=0;strokeColor=inherit;overflow=hidden;fillColor=none;top=0;left=0;bottom=0;right=0;pointerEvents=1;fontSize=16;" vertex="1" parent="54">
                    <mxGeometry width="95" height="98" as="geometry">
                        <mxRectangle width="95" height="98" as="alternateBounds"/>
                    </mxGeometry>
                </mxCell>
                <mxCell id="96" value="01" style="shape=partialRectangle;html=1;whiteSpace=wrap;connectable=0;strokeColor=inherit;overflow=hidden;fillColor=none;top=0;left=0;bottom=0;right=0;pointerEvents=1;fontSize=16;" vertex="1" parent="54">
                    <mxGeometry x="95" width="95" height="98" as="geometry">
                        <mxRectangle width="95" height="98" as="alternateBounds"/>
                    </mxGeometry>
                </mxCell>
                <mxCell id="56" value="Lula" style="shape=partialRectangle;html=1;whiteSpace=wrap;connectable=0;strokeColor=inherit;overflow=hidden;fillColor=none;top=0;left=0;bottom=0;right=0;pointerEvents=1;fontSize=16;" vertex="1" parent="54">
                    <mxGeometry x="190" width="95" height="98" as="geometry">
                        <mxRectangle width="95" height="98" as="alternateBounds"/>
                    </mxGeometry>
                </mxCell>
                <mxCell id="57" value="12934003" style="shape=partialRectangle;html=1;whiteSpace=wrap;connectable=0;strokeColor=inherit;overflow=hidden;fillColor=none;top=0;left=0;bottom=0;right=0;pointerEvents=1;fontSize=16;" vertex="1" parent="54">
                    <mxGeometry x="285" width="95" height="98" as="geometry">
                        <mxRectangle width="95" height="98" as="alternateBounds"/>
                    </mxGeometry>
                </mxCell>
                <mxCell id="58" value="10000" style="shape=partialRectangle;html=1;whiteSpace=wrap;connectable=0;strokeColor=inherit;overflow=hidden;fillColor=none;top=0;left=0;bottom=0;right=0;pointerEvents=1;fontSize=16;" vertex="1" parent="54">
                    <mxGeometry x="380" width="105" height="98" as="geometry">
                        <mxRectangle width="105" height="98" as="alternateBounds"/>
                    </mxGeometry>
                </mxCell>
                <mxCell id="70" value="Funcionario" style="shape=table;startSize=30;container=1;collapsible=0;childLayout=tableLayout;strokeColor=default;fontSize=16;" vertex="1" parent="1">
                    <mxGeometry x="1020" y="680" width="615" height="232" as="geometry"/>
                </mxCell>
                <mxCell id="71" value="" style="shape=tableRow;horizontal=0;startSize=0;swimlaneHead=0;swimlaneBody=0;strokeColor=inherit;top=0;left=0;bottom=0;right=0;collapsible=0;dropTarget=0;fillColor=none;points=[[0,0.5],[1,0.5]];portConstraint=eastwest;fontSize=16;" vertex="1" parent="70">
                    <mxGeometry y="30" width="615" height="101" as="geometry"/>
                </mxCell>
                <mxCell id="72" value="id" style="shape=partialRectangle;html=1;whiteSpace=wrap;connectable=0;strokeColor=inherit;overflow=hidden;fillColor=none;top=0;left=0;bottom=0;right=0;pointerEvents=1;fontSize=16;" vertex="1" parent="71">
                    <mxGeometry width="95" height="101" as="geometry">
                        <mxRectangle width="95" height="101" as="alternateBounds"/>
                    </mxGeometry>
                </mxCell>
                <mxCell id="97" value="id_funcionario" style="shape=partialRectangle;html=1;whiteSpace=wrap;connectable=0;strokeColor=inherit;overflow=hidden;fillColor=none;top=0;left=0;bottom=0;right=0;pointerEvents=1;fontSize=16;" vertex="1" parent="71">
                    <mxGeometry x="95" width="95" height="101" as="geometry">
                        <mxRectangle width="95" height="101" as="alternateBounds"/>
                    </mxGeometry>
                </mxCell>
                <mxCell id="73" value="nome" style="shape=partialRectangle;html=1;whiteSpace=wrap;connectable=0;strokeColor=inherit;overflow=hidden;fillColor=none;top=0;left=0;bottom=0;right=0;pointerEvents=1;fontSize=16;" vertex="1" parent="71">
                    <mxGeometry x="190" width="95" height="101" as="geometry">
                        <mxRectangle width="95" height="101" as="alternateBounds"/>
                    </mxGeometry>
                </mxCell>
                <mxCell id="74" value="cpf" style="shape=partialRectangle;html=1;whiteSpace=wrap;connectable=0;strokeColor=inherit;overflow=hidden;fillColor=none;top=0;left=0;bottom=0;right=0;pointerEvents=1;fontSize=16;" vertex="1" parent="71">
                    <mxGeometry x="285" width="95" height="101" as="geometry">
                        <mxRectangle width="95" height="101" as="alternateBounds"/>
                    </mxGeometry>
                </mxCell>
                <mxCell id="76" value="horas_trabalhadas" style="shape=partialRectangle;html=1;whiteSpace=wrap;connectable=0;strokeColor=inherit;overflow=hidden;fillColor=none;top=0;left=0;bottom=0;right=0;pointerEvents=1;fontSize=16;" vertex="1" parent="71">
                    <mxGeometry x="380" width="135" height="101" as="geometry">
                        <mxRectangle width="135" height="101" as="alternateBounds"/>
                    </mxGeometry>
                </mxCell>
                <mxCell id="77" value="valor_hora" style="shape=partialRectangle;html=1;whiteSpace=wrap;connectable=0;strokeColor=inherit;overflow=hidden;fillColor=none;top=0;left=0;bottom=0;right=0;pointerEvents=1;fontSize=16;" vertex="1" parent="71">
                    <mxGeometry x="515" width="100" height="101" as="geometry">
                        <mxRectangle width="100" height="101" as="alternateBounds"/>
                    </mxGeometry>
                </mxCell>
                <mxCell id="87" value="" style="shape=tableRow;horizontal=0;startSize=0;swimlaneHead=0;swimlaneBody=0;strokeColor=inherit;top=0;left=0;bottom=0;right=0;collapsible=0;dropTarget=0;fillColor=none;points=[[0,0.5],[1,0.5]];portConstraint=eastwest;fontSize=16;" vertex="1" parent="70">
                    <mxGeometry y="131" width="615" height="101" as="geometry"/>
                </mxCell>
                <mxCell id="88" value="01" style="shape=partialRectangle;html=1;whiteSpace=wrap;connectable=0;strokeColor=inherit;overflow=hidden;fillColor=none;top=0;left=0;bottom=0;right=0;pointerEvents=1;fontSize=16;" vertex="1" parent="87">
                    <mxGeometry width="95" height="101" as="geometry">
                        <mxRectangle width="95" height="101" as="alternateBounds"/>
                    </mxGeometry>
                </mxCell>
                <mxCell id="98" value="02" style="shape=partialRectangle;html=1;whiteSpace=wrap;connectable=0;strokeColor=inherit;overflow=hidden;fillColor=none;top=0;left=0;bottom=0;right=0;pointerEvents=1;fontSize=16;" vertex="1" parent="87">
                    <mxGeometry x="95" width="95" height="101" as="geometry">
                        <mxRectangle width="95" height="101" as="alternateBounds"/>
                    </mxGeometry>
                </mxCell>
                <mxCell id="89" value="Bolsonaro" style="shape=partialRectangle;html=1;whiteSpace=wrap;connectable=0;strokeColor=inherit;overflow=hidden;fillColor=none;top=0;left=0;bottom=0;right=0;pointerEvents=1;fontSize=16;" vertex="1" parent="87">
                    <mxGeometry x="190" width="95" height="101" as="geometry">
                        <mxRectangle width="95" height="101" as="alternateBounds"/>
                    </mxGeometry>
                </mxCell>
                <mxCell id="90" value="2335495" style="shape=partialRectangle;html=1;whiteSpace=wrap;connectable=0;strokeColor=inherit;overflow=hidden;fillColor=none;top=0;left=0;bottom=0;right=0;pointerEvents=1;fontSize=16;" vertex="1" parent="87">
                    <mxGeometry x="285" width="95" height="101" as="geometry">
                        <mxRectangle width="95" height="101" as="alternateBounds"/>
                    </mxGeometry>
                </mxCell>
                <mxCell id="92" value="40" style="shape=partialRectangle;html=1;whiteSpace=wrap;connectable=0;strokeColor=inherit;overflow=hidden;fillColor=none;top=0;left=0;bottom=0;right=0;pointerEvents=1;fontSize=16;" vertex="1" parent="87">
                    <mxGeometry x="380" width="135" height="101" as="geometry">
                        <mxRectangle width="135" height="101" as="alternateBounds"/>
                    </mxGeometry>
                </mxCell>
                <mxCell id="93" value="100" style="shape=partialRectangle;html=1;whiteSpace=wrap;connectable=0;strokeColor=inherit;overflow=hidden;fillColor=none;top=0;left=0;bottom=0;right=0;pointerEvents=1;fontSize=16;" vertex="1" parent="87">
                    <mxGeometry x="515" width="100" height="101" as="geometry">
                        <mxRectangle width="100" height="101" as="alternateBounds"/>
                    </mxGeometry>
                </mxCell>
                <mxCell id="145" value="Funcionario" style="shape=table;startSize=30;container=1;collapsible=0;childLayout=tableLayout;strokeColor=default;fontSize=16;" vertex="1" parent="1">
                    <mxGeometry x="690" y="1320" width="665" height="330" as="geometry"/>
                </mxCell>
                <mxCell id="146" value="" style="shape=tableRow;horizontal=0;startSize=0;swimlaneHead=0;swimlaneBody=0;strokeColor=inherit;top=0;left=0;bottom=0;right=0;collapsible=0;dropTarget=0;fillColor=none;points=[[0,0.5],[1,0.5]];portConstraint=eastwest;fontSize=16;" vertex="1" parent="145">
                    <mxGeometry y="30" width="665" height="101" as="geometry"/>
                </mxCell>
                <mxCell id="147" value="id" style="shape=partialRectangle;html=1;whiteSpace=wrap;connectable=0;strokeColor=inherit;overflow=hidden;fillColor=none;top=0;left=0;bottom=0;right=0;pointerEvents=1;fontSize=16;" vertex="1" parent="146">
                    <mxGeometry width="95" height="101" as="geometry">
                        <mxRectangle width="95" height="101" as="alternateBounds"/>
                    </mxGeometry>
                </mxCell>
                <mxCell id="148" value="nome" style="shape=partialRectangle;html=1;whiteSpace=wrap;connectable=0;strokeColor=inherit;overflow=hidden;fillColor=none;top=0;left=0;bottom=0;right=0;pointerEvents=1;fontSize=16;" vertex="1" parent="146">
                    <mxGeometry x="95" width="95" height="101" as="geometry">
                        <mxRectangle width="95" height="101" as="alternateBounds"/>
                    </mxGeometry>
                </mxCell>
                <mxCell id="149" value="cpf" style="shape=partialRectangle;html=1;whiteSpace=wrap;connectable=0;strokeColor=inherit;overflow=hidden;fillColor=none;top=0;left=0;bottom=0;right=0;pointerEvents=1;fontSize=16;" vertex="1" parent="146">
                    <mxGeometry x="190" width="95" height="101" as="geometry">
                        <mxRectangle width="95" height="101" as="alternateBounds"/>
                    </mxGeometry>
                </mxCell>
                <mxCell id="150" value="salario_fixo" style="shape=partialRectangle;html=1;whiteSpace=wrap;connectable=0;strokeColor=inherit;overflow=hidden;fillColor=none;top=0;left=0;bottom=0;right=0;pointerEvents=1;fontSize=16;" vertex="1" parent="146">
                    <mxGeometry x="285" width="105" height="101" as="geometry">
                        <mxRectangle width="105" height="101" as="alternateBounds"/>
                    </mxGeometry>
                </mxCell>
                <mxCell id="151" value="horas_trabalhadas" style="shape=partialRectangle;html=1;whiteSpace=wrap;connectable=0;strokeColor=inherit;overflow=hidden;fillColor=none;top=0;left=0;bottom=0;right=0;pointerEvents=1;fontSize=16;" vertex="1" parent="146">
                    <mxGeometry x="390" width="85" height="101" as="geometry">
                        <mxRectangle width="85" height="101" as="alternateBounds"/>
                    </mxGeometry>
                </mxCell>
                <mxCell id="152" value="valor_hora" style="shape=partialRectangle;html=1;whiteSpace=wrap;connectable=0;strokeColor=inherit;overflow=hidden;fillColor=none;top=0;left=0;bottom=0;right=0;pointerEvents=1;fontSize=16;" vertex="1" parent="146">
                    <mxGeometry x="475" width="95" height="101" as="geometry">
                        <mxRectangle width="95" height="101" as="alternateBounds"/>
                    </mxGeometry>
                </mxCell>
                <mxCell id="153" value="tipo_pagamento" style="shape=partialRectangle;html=1;whiteSpace=wrap;connectable=0;strokeColor=inherit;overflow=hidden;fillColor=none;top=0;left=0;bottom=0;right=0;pointerEvents=1;fontSize=16;" vertex="1" parent="146">
                    <mxGeometry x="570" width="95" height="101" as="geometry">
                        <mxRectangle width="95" height="101" as="alternateBounds"/>
                    </mxGeometry>
                </mxCell>
                <mxCell id="154" value="" style="shape=tableRow;horizontal=0;startSize=0;swimlaneHead=0;swimlaneBody=0;strokeColor=inherit;top=0;left=0;bottom=0;right=0;collapsible=0;dropTarget=0;fillColor=none;points=[[0,0.5],[1,0.5]];portConstraint=eastwest;fontSize=16;" vertex="1" parent="145">
                    <mxGeometry y="131" width="665" height="98" as="geometry"/>
                </mxCell>
                <mxCell id="155" value="01" style="shape=partialRectangle;html=1;whiteSpace=wrap;connectable=0;strokeColor=inherit;overflow=hidden;fillColor=none;top=0;left=0;bottom=0;right=0;pointerEvents=1;fontSize=16;" vertex="1" parent="154">
                    <mxGeometry width="95" height="98" as="geometry">
                        <mxRectangle width="95" height="98" as="alternateBounds"/>
                    </mxGeometry>
                </mxCell>
                <mxCell id="156" value="Lula" style="shape=partialRectangle;html=1;whiteSpace=wrap;connectable=0;strokeColor=inherit;overflow=hidden;fillColor=none;top=0;left=0;bottom=0;right=0;pointerEvents=1;fontSize=16;" vertex="1" parent="154">
                    <mxGeometry x="95" width="95" height="98" as="geometry">
                        <mxRectangle width="95" height="98" as="alternateBounds"/>
                    </mxGeometry>
                </mxCell>
                <mxCell id="157" value="12934003" style="shape=partialRectangle;html=1;whiteSpace=wrap;connectable=0;strokeColor=inherit;overflow=hidden;fillColor=none;top=0;left=0;bottom=0;right=0;pointerEvents=1;fontSize=16;" vertex="1" parent="154">
                    <mxGeometry x="190" width="95" height="98" as="geometry">
                        <mxRectangle width="95" height="98" as="alternateBounds"/>
                    </mxGeometry>
                </mxCell>
                <mxCell id="158" value="10000" style="shape=partialRectangle;html=1;whiteSpace=wrap;connectable=0;strokeColor=inherit;overflow=hidden;fillColor=none;top=0;left=0;bottom=0;right=0;pointerEvents=1;fontSize=16;" vertex="1" parent="154">
                    <mxGeometry x="285" width="105" height="98" as="geometry">
                        <mxRectangle width="105" height="98" as="alternateBounds"/>
                    </mxGeometry>
                </mxCell>
                <mxCell id="159" value="null" style="shape=partialRectangle;html=1;whiteSpace=wrap;connectable=0;strokeColor=inherit;overflow=hidden;fillColor=none;top=0;left=0;bottom=0;right=0;pointerEvents=1;fontSize=16;" vertex="1" parent="154">
                    <mxGeometry x="390" width="85" height="98" as="geometry">
                        <mxRectangle width="85" height="98" as="alternateBounds"/>
                    </mxGeometry>
                </mxCell>
                <mxCell id="160" value="null" style="shape=partialRectangle;html=1;whiteSpace=wrap;connectable=0;strokeColor=inherit;overflow=hidden;fillColor=none;top=0;left=0;bottom=0;right=0;pointerEvents=1;fontSize=16;" vertex="1" parent="154">
                    <mxGeometry x="475" width="95" height="98" as="geometry">
                        <mxRectangle width="95" height="98" as="alternateBounds"/>
                    </mxGeometry>
                </mxCell>
                <mxCell id="161" value="Mensalista" style="shape=partialRectangle;html=1;whiteSpace=wrap;connectable=0;strokeColor=inherit;overflow=hidden;fillColor=none;top=0;left=0;bottom=0;right=0;pointerEvents=1;fontSize=16;" vertex="1" parent="154">
                    <mxGeometry x="570" width="95" height="98" as="geometry">
                        <mxRectangle width="95" height="98" as="alternateBounds"/>
                    </mxGeometry>
                </mxCell>
                <mxCell id="162" value="" style="shape=tableRow;horizontal=0;startSize=0;swimlaneHead=0;swimlaneBody=0;strokeColor=inherit;top=0;left=0;bottom=0;right=0;collapsible=0;dropTarget=0;fillColor=none;points=[[0,0.5],[1,0.5]];portConstraint=eastwest;fontSize=16;" vertex="1" parent="145">
                    <mxGeometry y="229" width="665" height="101" as="geometry"/>
                </mxCell>
                <mxCell id="163" value="02" style="shape=partialRectangle;html=1;whiteSpace=wrap;connectable=0;strokeColor=inherit;overflow=hidden;fillColor=none;top=0;left=0;bottom=0;right=0;pointerEvents=1;fontSize=16;" vertex="1" parent="162">
                    <mxGeometry width="95" height="101" as="geometry">
                        <mxRectangle width="95" height="101" as="alternateBounds"/>
                    </mxGeometry>
                </mxCell>
                <mxCell id="164" value="Bolsonaro" style="shape=partialRectangle;html=1;whiteSpace=wrap;connectable=0;strokeColor=inherit;overflow=hidden;fillColor=none;top=0;left=0;bottom=0;right=0;pointerEvents=1;fontSize=16;" vertex="1" parent="162">
                    <mxGeometry x="95" width="95" height="101" as="geometry">
                        <mxRectangle width="95" height="101" as="alternateBounds"/>
                    </mxGeometry>
                </mxCell>
                <mxCell id="165" value="2335495" style="shape=partialRectangle;html=1;whiteSpace=wrap;connectable=0;strokeColor=inherit;overflow=hidden;fillColor=none;top=0;left=0;bottom=0;right=0;pointerEvents=1;fontSize=16;" vertex="1" parent="162">
                    <mxGeometry x="190" width="95" height="101" as="geometry">
                        <mxRectangle width="95" height="101" as="alternateBounds"/>
                    </mxGeometry>
                </mxCell>
                <mxCell id="166" value="null" style="shape=partialRectangle;html=1;whiteSpace=wrap;connectable=0;strokeColor=inherit;overflow=hidden;fillColor=none;top=0;left=0;bottom=0;right=0;pointerEvents=1;fontSize=16;" vertex="1" parent="162">
                    <mxGeometry x="285" width="105" height="101" as="geometry">
                        <mxRectangle width="105" height="101" as="alternateBounds"/>
                    </mxGeometry>
                </mxCell>
                <mxCell id="167" value="40" style="shape=partialRectangle;html=1;whiteSpace=wrap;connectable=0;strokeColor=inherit;overflow=hidden;fillColor=none;top=0;left=0;bottom=0;right=0;pointerEvents=1;fontSize=16;" vertex="1" parent="162">
                    <mxGeometry x="390" width="85" height="101" as="geometry">
                        <mxRectangle width="85" height="101" as="alternateBounds"/>
                    </mxGeometry>
                </mxCell>
                <mxCell id="168" value="100" style="shape=partialRectangle;html=1;whiteSpace=wrap;connectable=0;strokeColor=inherit;overflow=hidden;fillColor=none;top=0;left=0;bottom=0;right=0;pointerEvents=1;fontSize=16;" vertex="1" parent="162">
                    <mxGeometry x="475" width="95" height="101" as="geometry">
                        <mxRectangle width="95" height="101" as="alternateBounds"/>
                    </mxGeometry>
                </mxCell>
                <mxCell id="169" value="Horista" style="shape=partialRectangle;html=1;whiteSpace=wrap;connectable=0;strokeColor=inherit;overflow=hidden;fillColor=none;top=0;left=0;bottom=0;right=0;pointerEvents=1;fontSize=16;" vertex="1" parent="162">
                    <mxGeometry x="570" width="95" height="101" as="geometry">
                        <mxRectangle width="95" height="101" as="alternateBounds"/>
                    </mxGeometry>
                </mxCell>
            </root>
        </mxGraphModel>
    </diagram>
</mxfile>